<svg width="744" height="706" viewBox="0 0 744 706" fill="none" xmlns="http://www.w3.org/2000/svg">
<path d="M522.234 0H221.607C162.847 0.042459 106.506 22.1955 64.9567 61.5948C23.407 100.994 0.0447765 154.419 0 210.138V495.205C0.0358213 550.93 23.3941 604.363 64.9447 643.769C106.495 683.175 162.841 705.333 221.607 705.375H522.234C580.997 705.324 637.338 683.164 678.887 643.76C720.435 604.355 743.796 550.927 743.841 495.205V210.138C743.814 154.413 720.458 100.979 678.904 61.576C637.351 22.1731 581 0.0254894 522.234 0ZM669.048 495.205C669.039 532.125 653.568 567.53 626.037 593.636C598.506 619.742 561.169 634.412 522.234 634.421H221.607C202.329 634.421 183.239 630.82 165.429 623.823C147.619 616.826 131.436 606.571 117.806 593.644C104.176 580.716 93.3647 565.368 85.9903 548.478C78.6159 531.588 74.8226 513.486 74.8271 495.205V210.138C74.8226 191.859 78.6162 173.758 85.991 156.869C93.3658 139.981 104.177 124.636 117.808 111.711C131.439 98.7856 147.621 88.5336 165.432 81.5404C183.242 74.5473 202.33 70.9501 221.607 70.9543H522.234C561.16 70.9628 598.489 85.6295 626.013 111.73C653.538 137.83 669.005 173.227 669.014 210.138L669.048 495.205Z" fill="white"/>
<path d="M371.938 170.315C265.834 170.315 179.612 252.107 179.612 352.687C179.612 453.267 265.868 535.058 371.938 535.058C478.008 535.058 564.263 453.267 564.263 352.687C564.263 252.107 478.041 170.315 371.938 170.315ZM371.938 464.104C340.775 464.108 310.887 452.374 288.849 431.482C266.811 410.59 254.427 382.253 254.422 352.703C254.418 323.153 266.793 294.812 288.825 273.914C310.857 253.017 340.741 241.274 371.904 241.27C403.066 241.266 432.954 253 454.993 273.892C477.031 294.784 489.415 323.121 489.419 352.671C489.424 382.221 477.049 410.562 455.017 431.459C432.985 452.357 403.1 464.1 371.938 464.104ZM564.669 127.961C573.781 127.967 582.687 130.535 590.261 135.339C597.834 140.144 603.736 146.969 607.22 154.953C610.704 162.937 611.614 171.721 609.834 180.196C608.055 188.67 603.667 196.454 597.223 202.564C590.78 208.673 582.571 212.835 573.634 214.522C564.698 216.209 555.434 215.347 547.014 212.043C538.595 208.739 531.396 203.143 526.33 195.961C521.263 188.779 518.555 180.335 518.549 171.694C518.549 147.583 535.793 127.961 564.669 127.961Z" fill="white"/>
</svg>
