<svg width="651" height="751" viewBox="0 0 651 751" fill="none" xmlns="http://www.w3.org/2000/svg">
<path d="M569.111 160.406C564.049 157.79 559.121 154.922 554.345 151.813C540.459 142.632 527.727 131.815 516.424 119.594C488.142 87.2344 477.58 54.4063 473.689 31.4219H473.845C470.595 12.3438 471.939 0 472.142 0H343.33V498.094C343.33 504.781 343.33 511.391 343.049 517.922C343.049 518.734 342.97 519.484 342.924 520.359C342.924 520.719 342.924 521.094 342.846 521.469C342.846 521.562 342.846 521.656 342.846 521.75C341.488 539.622 335.759 556.886 326.163 572.023C316.567 587.161 303.398 599.709 287.814 608.563C271.573 617.802 253.203 622.649 234.517 622.625C174.502 622.625 125.861 573.688 125.861 513.25C125.861 452.813 174.502 403.875 234.517 403.875C245.878 403.864 257.169 405.652 267.971 409.172L268.127 278.016C235.336 273.78 202.022 276.386 170.289 285.669C138.555 294.953 109.09 310.712 83.7517 331.953C61.5496 351.244 42.8842 374.261 28.5955 399.969C23.158 409.344 2.64237 447.016 0.157998 508.156C-1.4045 542.859 9.01737 578.813 13.9861 593.672V593.984C17.1111 602.734 29.2205 632.594 48.9549 657.766C64.8679 677.957 83.6687 695.695 104.752 710.406V710.094L105.064 710.406C167.424 752.781 236.564 750 236.564 750C248.533 749.516 288.627 750 334.158 728.422C384.658 704.5 413.408 668.859 413.408 668.859C431.775 647.564 446.38 623.295 456.595 597.094C468.252 566.453 472.142 529.703 472.142 515.016V250.766C473.705 251.703 494.517 265.469 494.517 265.469C494.517 265.469 524.502 284.688 571.283 297.203C604.845 306.109 650.064 307.984 650.064 307.984V180.109C634.22 181.828 602.049 176.828 569.111 160.406Z" fill="white"/>
</svg>
