<svg width="751" height="519" viewBox="0 0 751 519" fill="none" xmlns="http://www.w3.org/2000/svg">
<path d="M601.658 0H149.342C66.9923 0 0 63.202 0 140.875V377.987C0 455.674 66.9923 518.862 149.342 518.862H601.658C684.008 518.862 751 455.66 751 377.987V140.875C751 63.202 684.008 0 601.658 0ZM720.347 378.001C720.347 439.791 667.103 490.05 601.658 490.05H149.342C83.8974 490.05 30.6531 439.776 30.6531 378.001V140.875C30.6531 79.0998 83.8974 28.8265 149.342 28.8265H601.658C667.103 28.8265 720.347 79.0998 720.347 140.875V378.001Z" fill="white"/>
<path d="M511.293 254.22L298.944 137.256C294.224 134.662 288.354 134.619 283.587 137.184C278.821 139.75 275.878 144.521 275.878 149.695V383.607C275.878 388.767 278.821 393.552 283.572 396.118C285.932 397.386 288.568 398.021 291.204 398.021C293.887 398.021 296.553 397.358 298.944 396.046L511.293 279.111C515.983 276.531 518.88 271.789 518.88 266.673C518.88 261.556 515.999 256.8 511.293 254.22ZM306.531 358.456V174.832L473.222 266.658L306.531 358.456Z" fill="white"/>
</svg>
